PathFileType	4	(X/Y/Z)	C:/Users/opensim2020/Desktop/walking_exp_matlab/subject01_walking08_straight_03.trc	
DataRate	CameraRate	NumFrames	NumMarkers	Units	OrigDataRate	OrigDataStartFrame	OrigNumFrames	
100.00	100.00	6	43	mm	100.00	2710	326	
Frame#	Time	LFHD			RFHD			LBHD			RBHD			C7			T10			CLAV			STRN			RBAK			LSHO			LUPA			LELB			LFRM			LWRA			LWRB			LFIN			RSHO			RUPA			RELB			RFRM			RWRA			RWRB			RFIN			LASI			RASI			LPSI			RPSI			LTHI			LKNE			LTIB			LANK			LHEE			LTOE			RTHI			RKNE			RTIB			RANK			RHEE			RTOE			*39			*40			*41			*42			
		X1	Y1	Z1	X2	Y2	Z2	X3	Y3	Z3	X4	Y4	Z4	X5	Y5	Z5	X6	Y6	Z6	X7	Y7	Z7	X8	Y8	Z8	X9	Y9	Z9	X10	Y10	Z10	X11	Y11	Z11	X12	Y12	Z12	X13	Y13	Z13	X14	Y14	Z14	X15	Y15	Z15	X16	Y16	Z16	X17	Y17	Z17	X18	Y18	Z18	X19	Y19	Z19	X20	Y20	Z20	X21	Y21	Z21	X22	Y22	Z22	X23	Y23	Z23	X24	Y24	Z24	X25	Y25	Z25	X26	Y26	Z26	X27	Y27	Z27	X28	Y28	Z28	X29	Y29	Z29	X30	Y30	Z30	X31	Y31	Z31	X32	Y32	Z32	X33	Y33	Z33	X34	Y34	Z34	X35	Y35	Z35	X36	Y36	Z36	X37	Y37	Z37	X38	Y38	Z38	X39	Y39	Z39	X40	Y40	Z40	X41	Y41	Z41	X42	Y42	Z42	X43	Y43	Z43	

1	0.000	-1061.78101	-956.91876	1673.60498	-949.49109	-941.18640	1689.43298	-1046.18604	-1054.04138	1596.04651	-927.05145	-1041.07336	1610.52161	-990.41168	-1052.13879	1433.44897	-968.96051	-1093.51208	1142.48157	-999.21924	-908.77942	1363.98010	-1004.22919	-870.04883	1206.03662	-902.58917	-1102.37366	1242.98303	-1155.02063	-979.79150	1388.45801	-1237.80127	-998.42816	1202.53223	-1240.65015	-988.28790	1050.82703	-1264.07800	-922.90344	956.03314	-1244.54150	-815.78717	867.87042	-1268.86304	-866.87042	847.60559	-1278.87000	-801.94037	794.43365	-843.30029	-957.24841	1393.44189	-734.89392	-1008.65546	1195.63281	-733.49066	-1013.85175	1070.35681	-707.14508	-986.29681	952.09344	-736.01031	-910.28162	834.12445	-692.64093	-950.00836	835.16705	-699.19159	-913.70648	757.35425	-1083.95764	-937.76343	928.26855	-869.20160	-917.98260	936.79535	-1012.22491	-1118.55603	946.96313	-867.03064	-1101.12524	949.67853	-1131.81543	-969.26941	597.95746	-1113.70496	-970.76862	464.96857	-1115.22925	-1023.75818	281.02231	-1059.99609	-1047.95532	64.83881	-1001.62506	-1086.22632	34.68738	-1088.33081	-903.95013	30.55775	-802.66174	-879.84662	615.47485	-832.20081	-834.15253	462.61508	-826.17841	-910.71667	303.18906	-874.86749	-970.50110	106.87239	-929.20709	-1020.71698	72.18706	-867.02179	-843.74902	48.96968	-972.81879	-964.78723	1715.92639	-3101.95044	1973.18567	1023.45105	-3140.66064	2012.56860	1022.13428			 
2	0.010	-1062.02356	-951.17493	1673.64014	-949.94714	-935.93817	1689.31726	-1046.80823	-1048.41846	1596.13257	-927.63214	-1035.58325	1610.41016	-991.39026	-1046.67871	1433.52161	-970.07990	-1088.47034	1142.57593	-999.45612	-903.51978	1363.69067	-1004.92950	-864.86652	1205.73804	-903.87762	-1097.44360	1243.01636	-1155.86304	-973.85004	1388.53357	-1238.92383	-992.11932	1202.80212	-1241.85120	-981.66913	1050.99695	-1264.93408	-914.88733	956.94312	-1245.07544	-806.61462	870.32880	-1269.40613	-857.37109	849.35132	-1279.14868	-791.75421	797.03076	-843.92389	-951.97510	1393.27979	-735.98108	-1004.70435	1195.52820	-734.49304	-1010.21844	1070.32654	-707.95636	-982.99170	951.97852	-736.35272	-907.05902	833.90411	-693.17102	-946.98999	835.02802	-699.32697	-910.73035	757.34277	-1084.85120	-933.27869	927.88409	-870.02576	-913.26349	936.79675	-1012.91907	-1114.01941	946.98901	-867.75409	-1097.00562	950.08917	-1132.33215	-966.67078	597.54773	-1114.18628	-968.98590	464.57233	-1115.29907	-1022.82361	280.92361	-1059.92529	-1047.81543	64.82063	-1001.55438	-1086.20593	34.65331	-1088.35657	-903.89380	30.47952	-803.00671	-874.85083	615.72784	-833.43347	-828.42700	462.91614	-827.35211	-898.68115	301.38284	-876.41193	-950.17883	102.71252	-930.30371	-1000.34912	67.53929	-868.55359	-821.16595	48.98285	-973.03937	-958.98871	1715.80383	-3101.95166	1973.10242	1023.70337	-3140.67627	2012.59045	1022.02155			 
3	0.020	-1062.22803	-945.36328	1673.59546	-949.99915	-930.43762	1689.16821	-1047.29675	-1042.74512	1596.12793	-928.08557	-1030.08948	1610.18469	-992.26587	-1041.13708	1433.48645	-971.04803	-1083.43848	1142.61719	-1000.34070	-897.99799	1363.51025	-1005.51276	-859.73267	1205.39124	-905.04083	-1092.40173	1242.96912	-1156.60645	-967.69281	1388.56396	-1239.69910	-985.82617	1202.98914	-1242.88647	-974.99445	1051.07324	-1265.67639	-907.02838	957.91638	-1245.47485	-797.54248	872.76941	-1269.87305	-847.92371	850.95227	-1279.49524	-781.45966	799.61316	-844.64832	-946.92987	1393.04858	-737.00665	-1000.73364	1195.37341	-735.47253	-1006.50903	1070.19666	-708.71576	-979.61475	951.78094	-736.63409	-903.74377	833.65100	-693.56201	-943.91370	834.83160	-699.42780	-907.61725	757.28424	-1085.67883	-928.82111	927.46423	-870.77820	-908.36414	936.75610	-1013.60675	-1109.36304	946.87616	-868.60718	-1091.63428	949.56812	-1132.86597	-964.09509	597.17139	-1114.55676	-967.18195	464.16208	-1115.28894	-1022.01886	280.80664	-1059.79895	-1047.77417	64.90284	-1001.46106	-1086.21130	34.67896	-1088.33752	-903.92358	30.41134	-803.36670	-870.64386	615.83167	-833.90875	-822.42603	463.78949	-828.18463	-887.86841	299.96173	-877.67657	-929.75897	98.71549	-931.52167	-977.91321	62.00662	-869.57751	-798.84406	49.51709	-973.11316	-953.57324	1715.94946	-3101.91187	1973.17993	1023.31531	-3140.67871	2012.56348	1022.10449			 
4	0.030	-1062.38171	-939.60962	1673.47107	-950.15546	-924.83008	1688.85962	-1047.75293	-1037.05579	1596.07373	-928.46271	-1024.58801	1609.91528	-993.14777	-1035.47522	1433.26025	-971.81201	-1078.33777	1142.64221	-1000.69421	-892.64294	1363.20508	-1006.11163	-854.49255	1205.05115	-906.05811	-1087.34961	1242.90210	-1157.06250	-961.67694	1388.48865	-1240.69397	-979.38007	1203.15295	-1243.87683	-968.29254	1051.07690	-1266.36584	-899.08282	958.57056	-1245.81519	-788.52399	875.09229	-1270.23254	-838.59705	852.57538	-1279.76587	-771.34656	802.12292	-845.13086	-941.85803	1392.72144	-737.95038	-996.73425	1195.18579	-736.33289	-1002.69550	1070.02686	-709.28802	-976.13770	951.66693	-736.83063	-900.25806	833.33405	-694.01300	-940.73450	834.66589	-699.47711	-904.35175	757.05811	-1086.51672	-924.22699	927.05969	-871.52252	-903.29968	936.63586	-1014.17493	-1104.71167	946.61493	-869.20728	-1086.70496	949.51758	-1133.27710	-961.39124	596.79651	-1114.93982	-965.18811	463.74756	-1115.37524	-1021.22791	280.73083	-1059.52930	-1047.77087	64.72509	-1001.43170	-1086.03369	34.64991	-1088.41785	-903.85278	30.33305	-803.41284	-865.22137	615.58887	-834.63672	-816.90100	464.28906	-828.96014	-876.87152	298.51694	-878.36450	-909.86737	95.63094	-932.92987	-955.69794	56.63852	-870.48315	-776.60602	50.25883	-973.25806	-947.87543	1715.67615	-3101.76880	1973.12952	1023.45221	-3140.61597	2012.51123	1022.01752			 
5	0.040	-1062.41736	-933.75897	1673.33179	-950.30249	-919.21429	1688.40930	-1048.06873	-1031.39099	1595.98096	-928.78290	-1019.01086	1609.61292	-993.83252	-1029.98853	1433.26672	-972.58337	-1073.12976	1142.51965	-1001.14655	-887.18524	1362.89355	-1006.66669	-849.23529	1204.66724	-906.94061	-1082.21777	1242.78955	-1157.74475	-955.75800	1388.50195	-1241.32507	-972.89972	1203.23669	-1244.76440	-961.56317	1051.10596	-1266.90857	-891.27325	959.39465	-1245.99536	-779.61078	877.37158	-1270.34912	-829.29596	854.01526	-1279.76648	-761.42889	804.61664	-845.56012	-937.05017	1392.39563	-738.87524	-992.71661	1194.96655	-737.15137	-998.79944	1069.81018	-709.86908	-972.53271	951.39221	-736.92767	-896.71808	832.96765	-694.32892	-937.10431	834.42102	-699.53961	-901.05164	756.77515	-1087.29480	-919.46649	926.68884	-872.23279	-898.10767	936.45520	-1014.54346	-1099.73657	946.64844	-869.79584	-1081.62012	949.30408	-1133.65735	-958.50940	596.40393	-1115.22583	-963.07971	463.30188	-1115.53882	-1020.30627	280.69858	-1059.43579	-1047.54871	64.82882	-1001.36731	-1086.03674	34.86352	-1088.46045	-903.53864	30.22179	-803.63055	-860.82135	615.45605	-835.29779	-811.61798	464.60211	-829.74646	-866.26947	297.09488	-879.22852	-889.47186	92.25569	-933.85248	-934.01031	52.18011	-870.82574	-754.85236	51.45618	-973.26587	-942.22559	1715.41211	-3101.87256	1973.12476	1023.46368	-3140.72314	2012.55139	1022.04871			 
6	0.050	-1062.38440	-927.91864	1673.15515	-950.15869	-913.51501	1688.15063	-1048.35181	-1025.59045	1595.84570	-929.03558	-1013.36108	1609.27600	-994.47778	-1024.35352	1433.02771	-973.10992	-1067.85388	1142.43005	-1001.56732	-881.62018	1362.53943	-1007.22803	-843.89117	1204.28320	-907.70807	-1077.02307	1242.65149	-1158.22119	-949.83203	1388.38440	-1242.19507	-966.35602	1203.30200	-1245.53943	-954.76270	1051.11462	-1267.37769	-883.40033	960.01935	-1246.02783	-770.80469	879.50043	-1270.47961	-820.14587	855.42737	-1279.59119	-751.73407	806.69556	-846.11200	-931.51788	1392.09155	-739.67737	-988.65808	1194.70752	-737.80261	-994.89960	1069.59961	-710.46509	-968.80402	951.10541	-737.05121	-892.97791	832.60034	-694.56006	-933.68701	834.09894	-699.53625	-897.64752	756.49707	-1087.99573	-914.68390	926.25995	-872.92578	-892.76355	936.21106	-1014.89246	-1094.78223	946.52899	-870.27094	-1076.38794	949.09064	-1134.03198	-955.44519	596.01123	-1115.46997	-961.08459	462.94958	-1115.73376	-1019.24280	280.64975	-1059.37744	-1047.36401	64.84411	-1001.30133	-1085.95337	34.99218	-1088.45093	-903.25995	30.02924	-804.13690	-857.08563	614.93744	-835.96472	-806.62134	464.69763	-830.41559	-855.45844	295.56863	-879.67206	-869.75140	89.81146	-934.44659	-912.32220	48.23383	-871.13873	-733.51544	53.08474	-973.15283	-936.57855	1715.16113	-3101.98901	1973.13232	1023.52386	-3140.73267	2012.46228	1022.03473			 
